<svg width="48" height="48" fill="none" xmlns="http://www.w3.org/2000/svg"><circle cx="24" cy="24" r="24" fill="#2A1C4D"/><g clip-path="url(#clip0)" fill="#fff"><path d="M17.718 21.517c.158 0 .277-.041.395-.082l3.951-2.235c.395-.207.514-.745.316-1.159-.197-.413-.711-.538-1.106-.33l-3.911 2.234c-.395.124-.593.538-.514.952.119.413.514.703.909.62h-.04zm6.005 3.27a.738.738 0 0 0 .395-.125l6.282-3.559c.237-.124.395-.413.395-.703 0-.331-.119-.62-.356-.745a.85.85 0 0 0-.83-.041l-6.28 3.558c-.356.166-.593.58-.475.994.08.413.474.662.87.62z"/><path d="M40 20.11a1.871 1.871 0 0 0-.948-1.117l-6.795-3.807c-1.106-.58-2.41-.58-3.556 0l-.553.29-4.701-2.648c-1.106-.58-2.41-.58-3.556 0L8.988 18.993c-.553.248-.909.786-.988 1.407v6.29c0 .33.158.62.435.744l13.827 7.863c1.106.579 2.45.579 3.555 0l13.788-7.945c.277-.124.434-.414.434-.745V20.4c0-.083-.039-.207-.039-.29zm-30.222.373l10.864-6.166a2.537 2.537 0 0 1 2.054 0l5.452 3.062 1.304-.745a2.536 2.536 0 0 1 2.054 0l6.756 3.807.079.042-.08.041-13.194 7.448c-.672.331-1.423.331-2.055 0L9.778 20.524l-.08-.041h.08zm15.25 13.324c-.633.29-1.384.29-2.016 0L9.62 26.193v-3.807l12.602 7.117c1.106.58 2.45.58 3.556 0l12.642-7.117v3.724l-13.393 7.697z"/></g><defs><clipPath id="clip0"><path fill="#fff" transform="translate(8 12)" d="M0 0H32V24H0z"/></clipPath></defs></svg>